<svg xmlns="http://www.w3.org/2000/svg" viewBox="0 0 64 64" fill="none">
  <defs>
    <linearGradient id="bg" x1="0" y1="0" x2="64" y2="64" gradientUnits="userSpaceOnUse">
      <stop offset="0%" stop-color="#5b9a72"/>
      <stop offset="100%" stop-color="#3d7a56"/>
    </linearGradient>
    <linearGradient id="leaf" x1="18" y1="14" x2="48" y2="50" gradientUnits="userSpaceOnUse">
      <stop offset="0%" stop-color="#ffffff" stop-opacity="0.95"/>
      <stop offset="100%" stop-color="#e0f5e9" stop-opacity="0.85"/>
    </linearGradient>
    <filter id="glow">
      <feDropShadow dx="0" dy="2" stdDeviation="3" flood-color="#3d7a56" flood-opacity="0.35"/>
    </filter>
  </defs>
  <rect width="64" height="64" rx="16" fill="url(#bg)"/>
  <g filter="url(#glow)">
    <path d="M32 12c-2 8-8 16-16 20 4 1 8 0.5 12-1-1 6-4 12-8 17 3-2 7-6 10-11 3 5 7 9 10 11-4-5-7-11-8-17 4 1.5 8 2 12 1-8-4-14-12-16-20z" fill="url(#leaf)" stroke="#ffffff" stroke-width="0.5" stroke-opacity="0.3"/>
  </g>
  <text x="32" y="56" text-anchor="middle" font-family="Inter,system-ui,sans-serif" font-size="7" font-weight="800" fill="#ffffff" opacity="0.9">VTL</text>
</svg>
